<svg xmlns="http://www.w3.org/2000/svg" viewBox="0 0 144 40"><title>logo1</title><g id="Layer_2" data-name="Layer 2"><g id="Layer_1-2" data-name="Layer 1"><rect width="144" height="40" style="fill:none"/><path d="M10.86,13.2a4,4,0,0,1-.44,1.14c-.1.16-.18.22-.24.2a8.8,8.8,0,0,0-3.32-.82,4.06,4.06,0,0,0-2.34.64,2.4,2.4,0,0,0-1,2.08v6.44A2.26,2.26,0,0,0,4.6,25a4.24,4.24,0,0,0,2.26.5,11.33,11.33,0,0,0,3.48-.66c.06,0,.12,0,.2.2a5,5,0,0,1,.32,1.1c0,.18,0,.3,0,.32A10.1,10.1,0,0,1,9,26.94a11.17,11.17,0,0,1-2.26.24A6.34,6.34,0,0,1,3,26.2a3.9,3.9,0,0,1-1.48-3.36V16.42A3.92,3.92,0,0,1,3,13a6.24,6.24,0,0,1,3.76-1,10.11,10.11,0,0,1,4.06.86C10.9,12.92,10.9,13,10.86,13.2Z"/><path d="M23.68,22.8c0,2.86-1.9,4.38-5.4,4.38S12.9,25.7,12.9,22.8V16.46c0-2.9,1.88-4.42,5.38-4.42s5.4,1.52,5.4,4.42Zm-2-6.26c0-1.9-1.14-2.84-3.4-2.84s-3.4,1-3.4,2.84V22.7c0,1.84,1.06,2.82,3.4,2.82s3.4-1,3.4-2.82Z"/><path d="M37.82,26.84s0,.06-.12.08A3.62,3.62,0,0,1,37,27h-.4c-.78,0-1.2-.06-1.26-.16l-4.48-8.36c-.7-1.3-1.42-2.74-2.06-4h0c.1,1.36.14,2.9.14,4.1v8.3c0,.08-.1.12-.32.14s-.44,0-.64,0-.42,0-.64,0-.34-.06-.34-.14V12.4s0-.08.14-.1a3.61,3.61,0,0,1,.76-.06h.4c.34,0,.66,0,.94,0s.44.08.46.14l4.14,7.84c.7,1.3,1.5,2.86,2.2,4.24h0q-.12-2-.12-4.14V12.4c0-.08.12-.12.34-.14s.44,0,.64,0,.42,0,.64,0,.3.06.3.14Z"/><path d="M52.22,26.84s0,.06-.12.08a3.62,3.62,0,0,1-.74.08H51c-.78,0-1.2-.06-1.26-.16l-4.48-8.36c-.7-1.3-1.42-2.74-2.06-4h0c.1,1.36.14,2.9.14,4.1v8.3c0,.08-.1.12-.32.14s-.44,0-.64,0-.42,0-.64,0-.34-.06-.34-.14V12.4s0-.08.14-.1a3.61,3.61,0,0,1,.76-.06h.4c.34,0,.66,0,.94,0s.44.08.46.14l4.14,7.84c.7,1.3,1.5,2.86,2.2,4.24h0q-.12-2-.12-4.14V12.4c0-.08.12-.12.34-.14s.44,0,.64,0,.42,0,.64,0,.3.06.3.14Z"/><path d="M63.54,26.7c0,.18-.08.28-.14.28H55.74V12.24h7.62c.06,0,.12.1.14.28s0,.4,0,.6a4.9,4.9,0,0,1,0,.56c0,.18-.08.28-.14.28H57.72v4.5h5c.06,0,.12.08.14.26a5.24,5.24,0,0,1,0,.58,5.06,5.06,0,0,1,0,.56c0,.18-.08.28-.14.28h-5v5.14H63.4c.06,0,.12.08.14.26a8.41,8.41,0,0,1,0,1.16Z"/><path d="M75.4,13.2A4,4,0,0,1,75,14.34c-.1.16-.18.22-.24.2a8.8,8.8,0,0,0-3.32-.82,4.06,4.06,0,0,0-2.34.64,2.4,2.4,0,0,0-1,2.08v6.44A2.26,2.26,0,0,0,69.14,25a4.24,4.24,0,0,0,2.26.5,11.33,11.33,0,0,0,3.48-.66c.06,0,.12,0,.2.2a5,5,0,0,1,.32,1.1c0,.18,0,.3,0,.32a10.1,10.1,0,0,1-1.78.46,11.17,11.17,0,0,1-2.26.24,6.34,6.34,0,0,1-3.76-1,3.9,3.9,0,0,1-1.48-3.36V16.42A3.92,3.92,0,0,1,67.56,13a6.24,6.24,0,0,1,3.76-1,10.11,10.11,0,0,1,4.06.86C75.44,12.92,75.44,13,75.4,13.2Z"/><path d="M86.72,13.62c0,.18-.08.28-.14.28h-4V26.84c0,.16-.6.16-1,.16s-1,0-1-.16V13.9h-4.1c-.08,0-.12-.1-.14-.28a5.06,5.06,0,0,1,0-.56,5,5,0,0,1,0-.56c0-.18.06-.26.14-.26H86.58c.08,0,.12.08.14.26a5,5,0,0,1,0,.56A5.06,5.06,0,0,1,86.72,13.62Z"/><path d="M98.14,16.36a3,3,0,0,1,.92.8v-5s0-.08.1-.1a2.17,2.17,0,0,1,.56-.06h.6a2.17,2.17,0,0,1,.56.06c.06,0,.1.06.1.1V26.82c0,.16-.56.16-.94.16-.18,0-.38,0-.58,0s-.3-.06-.3-.14V25.56A3.31,3.31,0,0,1,98,26.64a4,4,0,0,1-2.06.54,4.09,4.09,0,0,1-2.78-1,3.84,3.84,0,0,1-1.2-3V19.88a3.92,3.92,0,0,1,1.2-3,4.37,4.37,0,0,1,2.88-1A4.49,4.49,0,0,1,98.14,16.36Zm.22,8.32a2.72,2.72,0,0,0,.7-1.9V20.22a2.5,2.5,0,0,0-2.7-2.7c-1.46,0-2.44.72-2.44,2.62v2.72a2.3,2.3,0,0,0,2.54,2.62A2.5,2.5,0,0,0,98.36,24.68Z"/><path d="M103.68,23.1V19.94c0-2.7,1.76-4.08,4.54-4.08a5,5,0,0,1,3.32,1,3.84,3.84,0,0,1,1.24,3.06V23.1a3.82,3.82,0,0,1-1.28,3,5,5,0,0,1-3.28,1C105.36,27.18,103.68,25.8,103.68,23.1ZM110.86,20c0-1.78-1-2.52-2.64-2.52s-2.62.74-2.62,2.52v3c0,1.78.86,2.52,2.62,2.52s2.64-.74,2.64-2.52Z"/><path d="M115.1,23.1V19.94c0-2.62,1.66-4.08,4.22-4.08a6.06,6.06,0,0,1,3.6,1.1c.1.1,0,.52-.18.88a2.86,2.86,0,0,1-.32.48q-.18.21-.3.12a7.46,7.46,0,0,0-1-.58,3.85,3.85,0,0,0-1.6-.36c-1.66,0-2.48.88-2.48,2.64V23c0,1.7.82,2.56,2.48,2.56a4.56,4.56,0,0,0,2.64-1c.08-.06.18,0,.3.08a2.52,2.52,0,0,1,.56,1c0,.18,0,.28,0,.34a5.67,5.67,0,0,1-1.5.8,6.19,6.19,0,0,1-2.16.4C116.76,27.18,115.1,25.8,115.1,23.1Z"/><path d="M126.08,26.82a5.88,5.88,0,0,1-1.48-.64q-.09,0,0-.3a3.78,3.78,0,0,1,.52-1c.1-.14.16-.18.22-.16a6.81,6.81,0,0,0,1.32.6,4.46,4.46,0,0,0,1.5.3c1.36,0,2-.76,2-1.62s-.58-1.22-1.36-1.62c-.4-.2-.82-.4-1.28-.58a4.73,4.73,0,0,1-2.24-1.6,2.56,2.56,0,0,1-.4-1.46,2.65,2.65,0,0,1,.86-2,3.9,3.9,0,0,1,2.74-.88,8.08,8.08,0,0,1,3.1.64c.06,0,.06.12,0,.28a4.36,4.36,0,0,1-.34,1c-.08.14-.14.22-.2.2a6.62,6.62,0,0,0-2.64-.56c-1.18,0-1.72.6-1.72,1.24s.58,1,1.38,1.4c.4.18.82.38,1.28.56a4.75,4.75,0,0,1,2.28,1.76,2.7,2.7,0,0,1,.38,1.5,3.11,3.11,0,0,1-1,2.3,4,4,0,0,1-2.8,1A7.29,7.29,0,0,1,126.08,26.82Z"/></g></g></svg>